<svg width="50" height="50" viewBox="0 0 50 50" fill="none" xmlns="http://www.w3.org/2000/svg">
<path d="M45.6552 24.2998C43.8583 16.1768 41.1933 10.9951 36.9218 9.73243C36.0945 9.4911 35.2367 9.37071 34.3749 9.37501C31.7489 9.37501 29.6767 10.9375 24.9999 10.9375C20.3231 10.9375 18.247 9.37501 15.6249 9.37501C14.7272 9.37036 13.8332 9.49065 12.9687 9.73243C8.69131 10.9951 6.04873 16.1816 4.23135 24.2998C2.37588 32.5918 2.71182 39.1436 6.33877 40.4014C8.87783 41.2803 11.1483 39.4629 13.2987 36.7881C15.7401 33.7412 18.747 32.8037 24.9999 32.8037C31.2528 32.8037 34.1425 33.7412 36.5878 36.7881C38.7362 39.4649 41.0907 41.2598 43.5624 40.417C47.5683 39.0488 47.5116 32.6895 45.6552 24.2998Z" stroke="#DC143C" stroke-width="3.125" stroke-miterlimit="10"/>
<path d="M28.5156 23.8281C29.5943 23.8281 30.4688 22.9537 30.4688 21.875C30.4688 20.7963 29.5943 19.9219 28.5156 19.9219C27.4369 19.9219 26.5625 20.7963 26.5625 21.875C26.5625 22.9537 27.4369 23.8281 28.5156 23.8281Z" fill="#DC143C"/>
<path d="M32.8125 28.125C32.426 28.125 32.0482 28.0103 31.7269 27.7955C31.4056 27.5807 31.1553 27.2753 31.0076 26.9182C30.8599 26.561 30.8215 26.168 30.8973 25.789C30.973 25.41 31.1595 25.062 31.4332 24.7891C31.7068 24.5161 32.0553 24.3305 32.4345 24.2557C32.8137 24.1809 33.2065 24.2203 33.5633 24.3688C33.9201 24.5174 34.2248 24.7685 34.4388 25.0903C34.6529 25.4122 34.7666 25.7903 34.7656 26.1768C34.7643 26.6939 34.558 27.1894 34.1918 27.5547C33.8257 27.9199 33.3297 28.125 32.8125 28.125V28.125Z" fill="#DC143C"/>
<path d="M32.8125 19.5312C33.8912 19.5312 34.7656 18.6568 34.7656 17.5781C34.7656 16.4994 33.8912 15.625 32.8125 15.625C31.7338 15.625 30.8594 16.4994 30.8594 17.5781C30.8594 18.6568 31.7338 19.5312 32.8125 19.5312Z" fill="#DC143C"/>
<path d="M37.1094 23.8281C38.1881 23.8281 39.0625 22.9537 39.0625 21.875C39.0625 20.7963 38.1881 19.9219 37.1094 19.9219C36.0307 19.9219 35.1562 20.7963 35.1562 21.875C35.1562 22.9537 36.0307 23.8281 37.1094 23.8281Z" fill="#DC143C"/>
<path d="M20.3125 21.875H10.9375M15.625 17.1875V26.5625V17.1875Z" stroke="#DC143C" stroke-width="3.125" stroke-linecap="round" stroke-linejoin="round"/>
</svg>
