<svg width="68" height="68" viewBox="0 0 68 68" fill="none" xmlns="http://www.w3.org/2000/svg">
<path fill-rule="evenodd" clip-rule="evenodd" d="M45.3327 25.5C45.3327 28.5057 44.1386 31.3884 42.0132 33.5138C39.8878 35.6392 37.0051 36.8333 33.9993 36.8333C30.9936 36.8333 28.1109 35.6392 25.9855 33.5138C23.8601 31.3884 22.666 28.5057 22.666 25.5C22.666 22.4942 23.8601 19.6115 25.9855 17.4861C28.1109 15.3607 30.9936 14.1666 33.9993 14.1666C37.0051 14.1666 39.8878 15.3607 42.0132 17.4861C44.1386 19.6115 45.3327 22.4942 45.3327 25.5ZM39.666 25.5C39.666 27.0029 39.069 28.4442 38.0063 29.5069C36.9436 30.5696 35.5022 31.1666 33.9993 31.1666C32.4965 31.1666 31.0551 30.5696 29.9924 29.5069C28.9297 28.4442 28.3327 27.0029 28.3327 25.5C28.3327 23.9971 28.9297 22.5557 29.9924 21.493C31.0551 20.4303 32.4965 19.8333 33.9993 19.8333C35.5022 19.8333 36.9436 20.4303 38.0063 21.493C39.069 22.5557 39.666 23.9971 39.666 25.5Z" fill="#E7BB41"/>
<path fill-rule="evenodd" clip-rule="evenodd" d="M33.9997 2.83331C16.7872 2.83331 2.83301 16.7875 2.83301 34C2.83301 51.2125 16.7872 65.1666 33.9997 65.1666C51.2122 65.1666 65.1663 51.2125 65.1663 34C65.1663 16.7875 51.2122 2.83331 33.9997 2.83331ZM8.49967 34C8.49967 39.9216 10.5198 45.373 13.9057 49.7023C16.2835 46.5797 19.3511 44.0491 22.8687 42.3082C26.3864 40.5673 30.2589 39.6632 34.1838 39.6666C38.0579 39.663 41.8818 40.5436 45.364 42.2415C48.8462 43.9394 51.8949 46.4098 54.2778 49.4643C56.7328 46.2445 58.3857 42.4864 59.0999 38.501C59.814 34.5155 59.5689 30.4173 58.3847 26.5454C57.2006 22.6735 55.1115 19.1393 52.2902 16.2351C49.469 13.3309 45.9967 11.1402 42.1608 9.84442C38.3248 8.54859 34.2354 8.18483 30.2309 8.78324C26.2265 9.38164 22.4221 10.925 19.1325 13.2856C15.843 15.6463 13.1628 18.7563 11.3138 22.3584C9.46484 25.9605 8.50019 29.9511 8.49967 34ZM33.9997 59.5C28.1459 59.5088 22.4688 57.495 17.929 53.7993C19.7563 51.1834 22.1885 49.0476 25.0186 47.5736C27.8486 46.0996 30.9929 45.331 34.1838 45.3333C37.335 45.3308 40.4412 46.0801 43.2446 47.519C46.048 48.9579 48.4677 51.0449 50.3027 53.6066C45.7277 57.4223 39.957 59.5083 33.9997 59.5Z" fill="#E7BB41"/>
</svg>
