<svg width="68" height="68" viewBox="0 0 68 68" fill="none" xmlns="http://www.w3.org/2000/svg">
<path d="M56.9216 38.2243C57.365 38.5375 57.6957 38.9755 57.8676 39.4774C58.0395 39.9792 58.0441 40.5201 57.8808 41.0246C56.7485 44.4977 54.8225 47.6845 52.2432 50.3527C51.8708 50.7357 51.3838 50.9986 50.8493 51.1051C50.3147 51.2116 49.7588 51.1565 49.2583 50.9474L45.766 49.4769C45.3845 49.3141 44.9685 49.2389 44.5513 49.2576C44.1356 49.2808 43.7316 49.3982 43.3724 49.6003C43.0126 49.8001 42.7073 50.0788 42.4816 50.4137C42.2559 50.7485 42.1161 51.1299 42.0737 51.5266L41.6539 55.177C41.5935 55.6966 41.3671 56.1857 41.0057 56.5771C40.6444 56.9686 40.1658 57.2433 39.6354 57.3638C35.927 58.2121 32.0614 58.2121 28.353 57.3638C27.8263 57.2415 27.3514 56.9674 26.992 56.5782C26.6327 56.1891 26.4064 55.7036 26.3434 55.1873L25.9236 51.5438C25.8511 50.9229 25.5426 50.3494 25.0573 49.9328C24.6778 49.6118 24.2114 49.4003 23.7119 49.323C23.2124 49.2457 22.7003 49.3056 22.2349 49.4958L18.7426 50.9679C18.2435 51.177 17.6891 51.2327 17.1557 51.1275C16.6222 51.0222 16.1357 50.7611 15.7631 50.3801C13.1796 47.7092 11.251 44.518 10.1183 41.04C9.9559 40.5361 9.96081 39.9962 10.1324 39.4951C10.3039 38.994 10.6336 38.5565 11.0758 38.2431L14.1572 36.058C14.4939 35.8212 14.7677 35.5116 14.9564 35.1543C15.1452 34.797 15.2435 34.4021 15.2435 34.0015C15.2435 33.6009 15.1452 33.206 14.9564 32.8487C14.7677 32.4914 14.4939 32.1818 14.1572 31.945L11.0758 29.7633C10.6359 29.4516 10.3077 29.0167 10.1362 28.5186C9.96474 28.0205 9.95848 27.4836 10.1183 26.9819C11.2506 23.5066 13.1787 20.3183 15.7613 17.6503C16.0114 17.3915 16.315 17.1859 16.6544 17.0488C16.985 16.9144 17.3404 16.8452 17.6994 16.8452C18.0585 16.8452 18.4138 16.9144 18.7444 17.0488L22.2224 18.5192C22.605 18.6769 23.0208 18.7464 23.4365 18.7222C23.8521 18.698 24.2561 18.5808 24.6161 18.3799C24.976 18.179 25.2819 17.9 25.5093 17.5653C25.7367 17.2306 25.8792 16.8494 25.9254 16.4524L26.347 12.8157C26.4083 12.2906 26.6388 11.7969 27.0064 11.4034C27.3739 11.0099 27.8603 10.7362 28.3977 10.6204C30.2439 10.2296 32.127 10.0217 34.0174 10C35.8966 10.0206 37.7687 10.2279 39.6032 10.6204C40.1418 10.7354 40.6292 11.0096 40.9968 11.4043C41.3643 11.7991 41.5936 12.2945 41.6521 12.8209L42.0737 16.4541C42.1184 16.8505 42.2597 17.2313 42.4862 17.5657C42.7127 17.9001 43.018 18.1786 43.3774 18.3788C43.7369 18.579 44.1404 18.6953 44.5553 18.7182C44.9703 18.7411 45.385 18.67 45.766 18.5106L49.2422 17.0419C49.7435 16.8327 50.3 16.7773 50.8354 16.8835C51.3707 16.9896 51.8588 17.2521 52.2325 17.6349C54.8135 20.3001 56.7404 23.4856 57.8719 26.9579C58.0355 27.4613 58.0309 28.0012 57.8589 28.5021C57.687 29.003 57.3561 29.4397 56.9126 29.7513L53.8402 31.933C53.5021 32.1677 53.2268 32.4758 53.0367 32.8322C52.8466 33.1886 52.7471 33.5831 52.7464 33.9835C52.7457 34.3838 52.8438 34.7786 53.0327 35.1356C53.2215 35.4926 53.4958 35.8017 53.833 36.0375L56.9216 38.2243ZM33.9996 40.8429C35.8946 40.8429 37.712 40.1207 39.052 38.8351C40.392 37.5495 41.1448 35.8059 41.1448 33.9878C41.1448 32.1697 40.392 30.4261 39.052 29.1405C37.712 27.8549 35.8946 27.1327 33.9996 27.1327C32.1045 27.1327 30.2871 27.8549 28.9471 29.1405C27.6071 30.4261 26.8543 32.1697 26.8543 33.9878C26.8543 35.8059 27.6071 37.5495 28.9471 38.8351C30.2871 40.1207 32.1045 40.8429 33.9996 40.8429Z" fill="#D3D0CB"/>
</svg>
